<svg viewBox="0 0 1024 1024" fill="currentColor" width="32" height="32" xmlns="http://www.w3.org/2000/svg" xmlns:xlink="http://www.w3.org/1999/xlink">
    <path d="M256 128v128H128V128zM320 896V768a64 64 0 0 0-64-64H128a64.001 64.001 0 0 0-64 64v128a64 64 0 0 0 64 64h128a64.001 64.001 0 0 0 64-64M320 576V448a64 64 0 0 0-64-64H128a64.001 64.001 0 0 0-64 64v128a64 64 0 0 0 64 64h128a64.001 64.001 0 0 0 64-64M320 256V128a64.003 64.003 0 0 0-64-64H128a64.003 64.003 0 0 0-64 64v128a64.003 64.003 0 0 0 64 64h128a64.003 64.003 0 0 0 64-64M640 896V768a64.002 64.002 0 0 0-64-64H448a64.002 64.002 0 0 0-64 64v128a64.002 64.002 0 0 0 64 64h128a64.002 64.002 0 0 0 64-64M640 576V448a64.002 64.002 0 0 0-64-64H448a64.002 64.002 0 0 0-64 64v128a64.002 64.002 0 0 0 64 64h128a64.002 64.002 0 0 0 64-64M640 256V128a64.001 64.001 0 0 0-64-64H448a64 64 0 0 0-64 64v128a64.001 64.001 0 0 0 64 64h128a64 64 0 0 0 64-64M576 128v128H448V128zM896 128v128H768V128zM256 448v128H128V448zM576 448v128H448V448zM896 448H768v128h128zM256 768v128H128V768zM576 768v128H448V768zM896 768v128H768V768zM768 64a64 64 0 0 0-64 64v128a64.001 64.001 0 0 0 64 64h128a64 64 0 0 0 64-64V128a64.001 64.001 0 0 0-64-64zM704 448a64.002 64.002 0 0 1 64-64h128a64.002 64.002 0 0 1 64 64v128a64.002 64.002 0 0 1-64 64H768a64.002 64.002 0 0 1-64-64zM768 704a64.002 64.002 0 0 0-64 64v128a64.002 64.002 0 0 0 64 64h128a64.002 64.002 0 0 0 64-64V768a64.002 64.002 0 0 0-64-64z" />
</svg>