<svg viewBox="0 0 1024 1024" fill="currentColor" width="32" height="32" xmlns="http://www.w3.org/2000/svg" xmlns:xlink="http://www.w3.org/1999/xlink">
    <path d="M384 64H64v896h320zM960 64H640v320h320zM960 640v320H640V640zM0 64A64 64 0 0 1 64 0h320a64 64 0 0 1 64 64v896a64.002 64.002 0 0 1-64 64H64c-16.974 0-33.253-6.742-45.255-18.746S0 976.972 0 960zM576 64c0-16.974 6.742-33.253 18.746-45.255S623.028 0 640 0h320a64 64 0 0 1 64 64v320a64.002 64.002 0 0 1-64 64H640a64.002 64.002 0 0 1-64-64zM640 576a64.002 64.002 0 0 0-64 64v320a64.002 64.002 0 0 0 64 64h320a64.002 64.002 0 0 0 64-64V640a64.002 64.002 0 0 0-64-64z" />
</svg>