<svg viewBox="0 0 1024 1024" fill="currentColor" width="32" height="32" xmlns="http://www.w3.org/2000/svg" xmlns:xlink="http://www.w3.org/1999/xlink">
    <path d="M64 160a96.002 96.002 0 0 1 96-96h192a96 96 0 0 1 96 96v192a95.998 95.998 0 0 1-96 96H160a96 96 0 0 1-96-96zM160 128c-8.487 0-16.626 3.372-22.628 9.372S128 151.512 128 160v192a32.003 32.003 0 0 0 32 32h192a32.004 32.004 0 0 0 32-32V160c0-8.487-3.373-16.626-9.373-22.628S360.486 128 352 128zM576 160a96 96 0 0 1 96-96h192a96 96 0 0 1 96 96v192a95.998 95.998 0 0 1-96 96H672a95.998 95.998 0 0 1-96-96zM672 128a32.003 32.003 0 0 0-32 32v192a32.004 32.004 0 0 0 32 32h192a32.004 32.004 0 0 0 32-32V160c0-8.487-3.373-16.626-9.373-22.628S872.486 128 864 128zM64 672a96 96 0 0 1 96-96h192a95.998 95.998 0 0 1 96 96v192a95.998 95.998 0 0 1-96 96H160a96 96 0 0 1-96-96zM160 640c-8.487 0-16.626 3.373-22.628 9.373S128 663.514 128 672v192a32.003 32.003 0 0 0 32 32h192a32.004 32.004 0 0 0 32-32V672a32.004 32.004 0 0 0-32-32zM576 672a95.998 95.998 0 0 1 96-96h192a95.998 95.998 0 0 1 96 96v192a95.998 95.998 0 0 1-96 96H672a95.998 95.998 0 0 1-96-96zM672 640a32.004 32.004 0 0 0-32 32v192a32.004 32.004 0 0 0 32 32h192a32.004 32.004 0 0 0 32-32V672a32.004 32.004 0 0 0-32-32z" />
</svg>