<svg viewBox="0 0 1024 1024" fill="currentColor" width="32" height="32" xmlns="http://www.w3.org/2000/svg" xmlns:xlink="http://www.w3.org/1999/xlink">
    <path d="M384 224a96 96 0 0 1 96-96h64a96 96 0 0 1 96 96v64a96 96 0 0 1-96 96v64h352a32.004 32.004 0 0 1 32 32v64a32.004 32.004 0 0 1-32 32 32.004 32.004 0 0 1-32-32v-32H544v32a32.004 32.004 0 0 1-32 32 32.004 32.004 0 0 1-32-32v-32H160v32a32.003 32.003 0 0 1-32 32c-8.487 0-16.626-3.373-22.628-9.373S96 552.486 96 544v-64a32.003 32.003 0 0 1 32-32h352v-64c-25.459 0-49.878-10.115-67.882-28.118S384 313.461 384 288zM544 320a32.003 32.003 0 0 0 32-32v-64c0-8.487-3.373-16.626-9.373-22.628S552.486 192 544 192h-64a32.003 32.003 0 0 0-32 32v64c0 8.487 3.373 16.626 9.373 22.628S471.514 320 480 320zM0 736a96 96 0 0 1 96-96h64a96 96 0 0 1 96 96v64a96 96 0 0 1-96 96H96a96 96 0 0 1-96-96zM96 704c-8.487 0-16.626 3.373-22.628 9.373S64 727.514 64 736v64a32.003 32.003 0 0 0 32 32h64c8.487 0 16.626-3.373 22.628-9.373S192 808.486 192 800v-64a32.003 32.003 0 0 0-32-32zM384 736a95.998 95.998 0 0 1 96-96h64a95.998 95.998 0 0 1 96 96v64a95.998 95.998 0 0 1-96 96h-64a95.998 95.998 0 0 1-96-96zM480 704a32.004 32.004 0 0 0-32 32v64a32.004 32.004 0 0 0 32 32h64a32.004 32.004 0 0 0 32-32v-64a32.004 32.004 0 0 0-32-32zM768 736a95.998 95.998 0 0 1 96-96h64a95.998 95.998 0 0 1 96 96v64a95.998 95.998 0 0 1-96 96h-64a95.998 95.998 0 0 1-96-96zM864 704a32.004 32.004 0 0 0-32 32v64a32.004 32.004 0 0 0 32 32h64a32.004 32.004 0 0 0 32-32v-64a32.004 32.004 0 0 0-32-32z" />
</svg>