<svg viewBox="0 0 1024 1024" fill="currentColor" width="32" height="32" xmlns="http://www.w3.org/2000/svg" xmlns:xlink="http://www.w3.org/1999/xlink">
    <path d="M512 420.437 454.784 305.941c-14.208-28.352-38.848-69.12-73.728-102.08-34.304-32.448-75.392-54.528-125.056-54.528-107.264 0-192 84.864-192 186.88 0 77.504 35.456 132.224 119.552 215.68 21.568 21.376 46.144 44.48 73.344 69.952C327.808 688.405 416 771.221 512 881.941c96-110.72 184.192-193.536 255.104-260.096 27.2-25.472 51.84-48.64 73.344-69.952C924.544 468.437 960 413.717 960 336.213c0-102.016-84.736-186.88-192-186.88-49.728 0-90.752 22.08-125.056 54.528-34.88 32.96-59.52 73.728-73.728 102.08zM537.088 951.125A32.823 32.823 0 0 1 512 962.777a32.82 32.82 0 0 1-25.088-11.652c-102.464-121.728-195.2-208.768-271.552-280.384C83.2 546.645 0 468.629 0 336.213c0-138.56 114.56-250.88 256-250.88 102.4 0 174.016 67.2 217.856 128.512 16.64 23.36 29.312 45.824 38.144 63.488a486 486 0 0 1 38.144-63.488C593.984 152.469 665.6 85.333 768 85.333c141.44 0 256 112.32 256 250.88 0 132.416-83.2 210.432-215.36 334.528-76.352 71.68-169.088 158.784-271.552 280.384" />
</svg>