<svg viewBox="0 0 1024 1024" fill="currentColor" width="32" height="32" xmlns="http://www.w3.org/2000/svg" xmlns:xlink="http://www.w3.org/1999/xlink">
    <path d="M256 944a48.003 48.003 0 0 1-57.364 47.079 48.03 48.03 0 0 1-24.577-13.136 47.996 47.996 0 0 1 7.274-73.852 48 48 0 0 1 60.608 5.968A48 48 0 0 1 256 944zM336 768a48 48 0 0 0-47.078 57.363 48 48 0 0 0 37.715 37.715c9.309 1.853 18.96 0.899 27.731-2.733A48 48 0 0 0 336 768zM80 768a48.002 48.002 0 0 0-33.941 81.942A48.001 48.001 0 1 0 80 768zM208 640a48.002 48.002 0 0 0-33.941 81.942A48.001 48.001 0 1 0 208 640zM1024 160c0 8.487-3.373 16.626-9.373 22.628S1000.486 192 992 192H877.238L765.84 303.44 679.2 810.598a63.998 63.998 0 0 1-108.359 34.639l-392.002-392c-8.32-8.314-14.187-18.762-16.956-30.195s-2.334-23.408 1.258-34.611a64 64 0 0 1 50.458-43.59l506.96-86.682 120.8-120.8a32.011 32.011 0 0 1 22.64-9.36h128A32.003 32.003 0 0 1 1024 160zM696.842 327.162 224 408 616 800z" />
</svg>