<svg viewBox="0 0 9284 1024" fill="currentColor" width="290.125" height="32" version="1.1" xmlns="http://www.w3.org/2000/svg" xmlns:xlink="http://www.w3.org/1999/xlink">
    <path d="M9242.829 490.667h-246.306c-1.297-15.191-6.622-28.282-16.043-39.272-9.353-10.99-21.504-19.394-36.318-25.212-14.609-6.141-30.72-9.212-48.538-9.212-22.938 0-42.667 4.202-59.119 12.606-16.521 8.404-24.576 20.363-24.235 35.879-0.341 10.99 4.369 21.172 14.063 30.545 9.967 9.374 29.218 16.646 57.685 21.818l151.279 27.152c76.254 13.899 132.983 37.333 170.189 70.303 37.478 32.646 56.388 76.446 56.73 131.394-0.341 53.009-16.179 99.069-47.514 138.185-31.061 38.782-73.591 68.847-127.522 90.18-53.658 21.006-114.961 31.512-183.774 31.512-113.801 0-202.82-23.272-267.127-69.816-64.034-46.544-99.738-107.957-107.179-184.245h265.694c3.55 23.6 15.223 41.861 34.884 54.791 20.07 12.602 45.261 18.91 75.639 18.91 24.576 0 44.783-4.205 60.621-12.609 16.179-8.404 24.439-20.364 24.713-35.874-0.273-14.227-7.441-25.539-21.299-33.942-13.585-8.404-34.953-15.189-64.034-20.364l-131.823-23.272c-75.981-13.251-132.847-38.466-170.667-75.637s-56.593-85.01-56.252-143.515c-0.341-51.717 13.244-95.515 40.687-131.394 27.785-36.202 67.379-63.676 118.784-82.424 51.746-19.071 112.981-28.606 183.774-28.606 107.657 0 192.512 22.303 254.566 66.91 62.396 44.606 95.164 106.343 98.442 185.209z" />
    <path d="M7947.264 816.483l1.911-318.058h34.953l180.361-250.182h300.578l-302.558 389.818h-75.639zM7706.761 992.973V0h267.674v992.973zM8166.4 992.973 7995.733 698.184l174.558-190.063 302.558 484.852z" />
    <path d="M7210.257 1006.544c-80.828 0-149.982-16.002-207.531-47.998-57.549-32.324-101.649-77.251-132.369-134.786-30.72-57.863-46.046-124.935-46.046-201.215 0-76.283 15.326-143.192 46.046-200.727 30.72-57.859 74.82-102.788 132.369-134.788 57.549-32.323 126.703-48.485 207.531-48.485 73.045 0 136.26 13.253 189.577 39.758 53.658 26.182 95.164 63.354 124.587 111.515 29.423 47.839 44.305 104.081 44.646 168.727h-248.286c-3.55-39.111-14.882-68.848-33.929-89.212-18.773-20.687-43.008-31.03-72.704-31.03-23.279 0-43.691 6.788-61.099 20.363-17.476 13.253-31.061 33.455-40.755 60.606-9.694 26.828-14.541 60.606-14.541 101.333s4.847 74.669 14.541 101.819c9.694 26.829 23.279 47.029 40.755 60.607 17.408 13.251 37.82 19.879 61.099 19.879 19.729 0 37.137-4.526 52.361-13.578 15.155-9.373 27.443-22.951 36.864-40.728 9.694-18.097 15.497-40.079 17.408-65.939h248.286c-1.024 65.618-16.043 122.825-45.124 171.636-29.082 48.483-70.315 85.982-123.631 112.483-53.043 26.508-116.395 39.759-190.055 39.76z" />
    <path d="M6420.391 667.151v-418.91h267.639v744.724h-254.061V851.394h-7.762c-16.159 47.514-44.442 84.685-84.842 111.514-40.407 26.508-88.405 39.759-144.002 39.759-52.04 0-97.621-11.96-136.731-35.881-38.789-23.921-69.011-56.887-90.665-98.905-21.333-42.025-32.16-90.187-32.481-144.486V248.242h267.633v418.91c0.321 36.849 9.701 65.78 28.119 86.786 18.753 21.012 44.933 31.519 78.548 31.519 22.303 0 41.533-4.69 57.699-14.063 16.486-9.694 29.088-23.272 37.82-40.728 9.045-17.777 13.414-38.946 13.086-63.515z" />
    <path d="M5318.178 992.973v-744.73h259.878v141.576h7.755c13.578-52.363 35.069-90.666 64.485-114.909 29.737-24.242 64.485-36.364 104.243-36.364 11.639 0 23.108 0.97 34.427 2.91 11.633 1.616 22.787 4.04 33.451 7.272v228.364c-13.251-4.525-29.573-7.919-48.968-10.182s-36.038-3.394-49.937-3.394c-26.187 0-49.78 5.979-70.793 17.939-20.685 11.637-37.007 28.121-48.968 49.454-11.96 21.01-17.94 45.738-17.94 74.182v387.882z" />
    <path d="M4399.841 217.212V0h863.027v217.212h-298.667v775.761h-265.694V217.212z" />
    <path d="M4267.206 0v992.973h-267.639V0z" />
    <path d="M3498.441 1006.544c-79.517 0-148.043-15.189-205.578-45.575-57.207-30.706-101.328-74.663-132.362-131.878-30.706-57.535-46.06-126.382-46.06-206.546 0-76.929 15.517-144.161 46.544-201.697 31.034-57.536 74.827-102.303 131.393-134.303s123.317-48 200.247-48c56.238 0 107.151 8.727 152.726 26.182s84.528 42.828 116.845 76.121c32.324 32.97 57.214 73.051 74.67 120.243s26.18 100.364 26.18 159.515v62.061h-665.211V535.273h418.912c-0.328-21.333-5.823-40.081-16.486-56.242-10.342-16.485-24.405-29.252-42.182-38.303-17.456-9.374-37.335-14.061-59.638-14.061-21.654 0-41.533 4.687-59.638 14.061-18.097 9.051-32.645 21.657-43.636 37.818-10.663 16.161-16.323 35.071-16.971 56.727l0 159.033c0 23.914 5.011 45.247 15.032 64 10.022 18.746 24.405 33.451 43.151 44.121 18.746 10.663 41.376 15.995 67.878 15.995 18.425 0 35.232-2.58 50.429-7.755 15.51-5.175 28.768-12.609 39.759-22.303 10.984-10.022 19.067-21.982 24.241-35.881h244.361c-8.404 51.719-28.283 96.652-59.638 134.793-31.348 37.813-72.888 67.229-124.607 88.241-51.391 20.685-111.514 31.027-180.361 31.027z" />
    <path d="M3060.832 248.241 2810.655 992.965h-310.306l-250.184-744.724h281.211l120.245 492.609h7.755l120.245-492.609z" />
    <path d="M1710.49 1004.605c-47.514 0-89.532-7.755-126.061-23.272-36.202-15.838-64.642-39.759-85.333-71.755-20.685-32.003-31.027-72.731-31.027-122.184 0-40.728 6.95-75.476 20.849-104.243 13.899-29.09 33.294-52.848 58.184-71.272 24.883-18.424 53.815-32.485 86.787-42.181 33.294-9.697 69.168-16 107.636-18.909 41.697-3.232 75.148-7.111 100.359-11.637 25.539-4.848 43.964-11.475 55.276-19.879 11.312-8.727 16.971-20.202 16.971-34.424v-1.939c0-19.394-7.434-34.263-22.303-44.606s-33.942-15.515-57.214-15.515c-25.539 0-46.38 5.657-62.546 16.97-15.838 10.99-25.375 27.959-28.604 50.909h-246.306c3.236-45.252 17.62-86.949 43.151-125.09 25.859-38.465 63.515-69.172 112.975-92.121 49.452-23.273 111.186-34.91 185.207-34.91 53.337 0 101.171 6.303 143.517 18.909 42.346 12.283 78.384 29.576 108.121 51.879 29.737 21.98 52.361 47.839 67.878 77.576 15.838 29.414 23.757 61.414 23.757 96v510.063h-250.177V888.246h-5.823c-14.868 27.798-32.966 50.258-54.299 67.393-21.012 17.128-45.09 29.573-72.247 37.335-26.829 7.755-56.402 11.633-88.728 11.631zM1797.762 835.878c20.364 0 39.438-4.198 57.214-12.602 18.097-8.404 32.809-20.528 44.121-36.366s16.971-35.069 16.971-57.699v-62.059c-7.113 2.91-14.711 5.657-22.787 8.243-7.762 2.586-16.166 5.01-25.211 7.272-8.731 2.26-18.104 4.362-28.126 6.301-9.694 1.939-19.879 3.721-30.543 5.338-20.685 3.229-37.656 8.561-50.913 15.995-12.93 7.113-22.624 16.002-29.088 26.672-6.144 10.342-9.209 21.975-9.209 34.905 0 20.692 7.27 36.529 21.818 47.514 14.541 10.991 33.13 16.486 55.753 16.486z" />
    <path d="M918.33 992.973v-744.73h259.884v141.576h7.755c13.578-52.363 35.069-90.666 64.485-114.909 29.737-24.242 64.485-36.364 104.243-36.364 11.633 0 23.108 0.97 34.427 2.91 11.633 1.616 22.787 4.04 33.451 7.272v228.364c-13.251-4.525-29.573-7.919-48.968-10.182s-36.045-3.394-49.944-3.394c-26.18 0-49.773 5.979-70.786 17.939-20.685 11.637-37.007 28.121-48.968 49.454-11.96 21.01-17.94 45.738-17.94 74.182v387.882z" />
    <path d="M0 217.212V0h863.027v217.212H564.364v775.761H298.667V217.212z" />
</svg>