<svg viewBox="0 0 1024 1024" fill="currentColor" width="32" height="32" xmlns="http://www.w3.org/2000/svg" xmlns:xlink="http://www.w3.org/1999/xlink">
    <path d="M0 256c0 0 0-128 128-128h768c0 0 128 0 128 128v384c0 0 0 128-128 128H640q0 63.999 16 96h48a32.004 32.004 0 0 1 32 32 32.004 32.004 0 0 1-32 32H320c-8.487 0-16.626-3.373-22.628-9.373S288 904.486 288 896a32.003 32.003 0 0 1 32-32h48q16-32.001 16-96H128c0 0-128 0-128-128zM89.472 201.28a48.63 48.63 0 0 0-16.256 19.328A96 96 0 0 0 64 256.64V640c0 20.8 4.992 32.128 9.28 38.528q6.72 9.983 19.328 16.256a96.1 96.1 0 0 0 34.432 9.152l1.6 0.064H896c20.8 0 32.128-4.992 38.528-9.28a48.6 48.6 0 0 0 16.256-19.328 96 96 0 0 0 9.152-34.432l0.064-1.6V256c0-20.8-4.992-32.128-9.28-38.528a48.6 48.6 0 0 0-19.328-16.256A96 96 0 0 0 895.36 192H128c-20.8 0-32.128 4.992-38.528 9.28" />
</svg>