<svg viewBox="0 0 1024 1024" fill="currentColor" width="32" height="32" xmlns="http://www.w3.org/2000/svg" xmlns:xlink="http://www.w3.org/1999/xlink">
    <path d="M32 384a32 32 0 0 0-13.832 3.149 32 32 0 0 0-11.111 8.822 31.99 31.99 0 0 0-6.289 26.941l105.728 475.776a160 160 0 0 0 56.056 90.102 160 160 0 0 0 100.104 35.21h370.688a160 160 0 0 0 100.102-35.21 160 160 0 0 0 56.058-90.102l8.384-37.76c48.954 9.155 99.552-1.069 141.11-28.515s70.826-69.968 81.622-118.589a192 192 0 0 0-23.754-141.99 192 192 0 0 0-115.779-85.562l14.144-63.36a32.01 32.01 0 0 0-6.288-26.941 32 32 0 0 0-11.11-8.822 32.06 32.06 0 0 0-13.834-3.149zM832 800a128 128 0 0 1-20.224-1.6l55.488-249.472A128.064 128.064 0 0 1 832 800zM168.96 884.8 71.872 448h752.256L727.04 884.8a96 96 0 0 1-33.629 54.067A96 96 0 0 1 633.344 960H262.656a96 96 0 0 1-60.066-21.133 95.98 95.98 0 0 1-33.63-54.067M281.6 51.2l-0.192 0.256-0.896 1.216a256 256 0 0 0-13.056 19.84 128 128 0 0 0-9.024 17.088c-1.664 3.84-2.176 5.888-2.368 6.592v0.256a38.4 38.4 0 0 0 5.824 15.872c4.8 8.512 11.392 17.408 19.712 28.48l0.64 0.768c7.552 10.112 16.64 22.208 23.68 34.752 7.168 12.8 14.08 29.12 14.08 47.68 0 12.032-4.16 23.552-7.616 31.616a192 192 0 0 1-12.928 24.832 320 320 0 0 1-16.192 24.448l-1.152 1.6-0.32 0.512-0.128 0.128A32.007 32.007 0 0 1 230.4 268.8l0.192-0.256 0.896-1.216a256 256 0 0 0 13.056-19.84 128 128 0 0 0 9.024-17.088c1.664-3.84 2.176-5.888 2.368-6.592a38.4 38.4 0 0 0-5.76-16.128 256 256 0 0 0-19.776-28.48l-0.64-0.768a320 320 0 0 1-23.68-34.752A97.9 97.9 0 0 1 192 96c0-12.032 4.16-23.552 7.616-31.616 3.776-8.832 8.576-17.536 12.928-24.832a384 384 0 0 1 16.192-24.448l1.6-2.24A32.007 32.007 0 0 1 281.6 51.2M473.6 51.2l-0.192 0.256-0.896 1.216a256 256 0 0 0-13.056 19.84 128 128 0 0 0-9.024 17.088c-1.664 3.84-2.176 5.888-2.368 6.592v0.256a38.4 38.4 0 0 0 5.824 15.872c4.8 8.512 11.392 17.408 19.712 28.48l0.64 0.768c7.552 10.112 16.64 22.208 23.68 34.752 7.168 12.8 14.08 29.12 14.08 47.68 0 12.032-4.16 23.552-7.616 31.616a192 192 0 0 1-12.928 24.832 320 320 0 0 1-16.192 24.448l-1.152 1.6-0.32 0.512-0.128 0.128A32.007 32.007 0 0 1 422.4 268.8l0.192-0.256 0.896-1.216a256 256 0 0 0 13.056-19.84 128 128 0 0 0 9.024-17.088c1.664-3.84 2.176-5.888 2.368-6.592a38.4 38.4 0 0 0-5.76-16.128 256 256 0 0 0-19.776-28.48l-0.64-0.768a320 320 0 0 1-23.68-34.752A97.9 97.9 0 0 1 384 96c0-12.032 4.16-23.552 7.616-31.616 3.776-8.832 8.576-17.536 12.928-24.832a385 385 0 0 1 16.192-24.448l1.6-2.24A32.007 32.007 0 0 1 473.6 51.2M665.6 51.2l-0.192 0.256-0.896 1.216a256 256 0 0 0-13.056 19.84 128 128 0 0 0-9.024 17.088c-1.664 3.84-2.176 5.888-2.368 6.592v0.256a38.4 38.4 0 0 0 5.824 15.872c4.8 8.512 11.392 17.408 19.712 28.48l0.64 0.768c7.552 10.112 16.64 22.208 23.68 34.752 7.168 12.8 14.08 29.12 14.08 47.68 0 12.032-4.16 23.552-7.616 31.616a192 192 0 0 1-12.928 24.832 320 320 0 0 1-16.128 24.448l-1.216 1.6-0.32 0.512-0.128 0.128A32.007 32.007 0 0 1 614.4 268.8l0.192-0.256 0.896-1.216a256 256 0 0 0 13.056-19.84 128 128 0 0 0 9.024-17.088c1.664-3.84 2.176-5.888 2.368-6.592a38.4 38.4 0 0 0-5.76-16.128 256 256 0 0 0-19.776-28.48l-0.64-0.768a320 320 0 0 1-23.68-34.752A97.9 97.9 0 0 1 576 96c0-12.032 4.16-23.552 7.616-31.616 3.776-8.832 8.576-17.536 12.928-24.832a385 385 0 0 1 16.192-24.448l1.6-2.24A32.007 32.007 0 0 1 665.6 51.2" />
</svg>