<svg viewBox="0 0 1024 1024" fill="currentColor" width="32" height="32" xmlns="http://www.w3.org/2000/svg" xmlns:xlink="http://www.w3.org/1999/xlink">
    <path d="M757.334 298.666a32.004 32.004 0 0 0-32-32 32 32 0 0 0-22.627 9.373 32 32 0 0 0-9.373 22.627V384a31.999 31.999 0 1 0 64 0zM757.334 597.331a32 32 0 0 0-9.373-22.627 31.997 31.997 0 0 0-45.254 0 32 32 0 0 0-9.373 22.627v85.334c0 8.486 3.37 16.627 9.373 22.627a31.997 31.997 0 0 0 45.254 0c6-6 9.373-14.141 9.373-22.627z" />
    <path d="M514.39 53.334h-4.781c-78.419 0-140.544 0-189.139 6.528-50.006 6.741-90.497 20.907-122.454 52.821-31.915 31.957-46.08 72.448-52.821 122.453-6.528 48.64-6.528 110.719-6.528 189.142v132.778c0 78.422 0 140.544 6.528 189.142 6.741 50.006 20.907 90.496 52.821 122.454 19.627 19.584 42.411 32.467 68.651 41.088v28.928c0 17.664 14.336 32 32 32h42.668a32 32 0 0 0 22.627-9.373 32 32 0 0 0 9.373-22.627v-12.63C412.033 928 457.175 928 509.61 928h4.781c52.48 0 97.578 0 136.275-1.962v12.63c0 17.664 14.336 32 32 32h42.669a32 32 0 0 0 22.627-9.373 32 32 0 0 0 9.373-22.627V909.74c26.24-8.621 49.066-21.504 68.65-41.088 31.914-31.958 46.08-72.448 52.822-122.454 6.528-48.64 6.528-110.72 6.528-189.142V424.32c0-78.419 0-140.543-6.528-189.141-6.742-50.005-20.909-90.496-52.822-122.453-31.958-31.915-72.448-46.08-122.454-52.821-48.64-6.528-110.72-6.528-189.139-6.528zM243.285 157.953c18.048-18.048 42.795-28.885 85.716-34.645 43.862-5.888 101.632-5.973 182.998-5.973s139.178 0.085 183.04 5.973c42.88 5.76 67.626 16.597 85.674 34.645s28.886 42.795 34.646 85.717c5.888 43.861 5.974 101.632 5.974 182.999v32H202.665v-32c0-81.366 0.085-139.138 5.973-183.042 5.76-42.88 16.597-67.627 34.647-85.674zM202.667 522.669h618.668v32c0 81.363-0.086 139.178-5.974 183.04-5.76 42.88-16.598 67.626-34.646 85.674S737.921 852.269 695 858.029C651.138 863.917 593.368 864 512.002 864s-139.136-0.083-183.04-5.971c-42.88-5.76-67.627-16.598-85.675-34.646s-28.885-42.794-34.645-85.718c-5.888-43.818-5.973-101.632-5.973-182.995z" />
</svg>