<svg viewBox="0 0 1188 1024" stroke-width="81.92" stroke="currentColor" stroke-linecap="round" stroke-linejoin="round" fill="none" width="37.125" height="32" xmlns="http://www.w3.org/2000/svg" xmlns:xlink="http://www.w3.org/1999/xlink">
    <path d="M1024 40.96H150.187C89.863 40.96 40.96 89.863 40.96 150.187v600.745c0 60.326 48.903 109.228 109.227 109.228H1024c60.326 0 109.228-48.902 109.228-109.228V150.187c0-60.324-48.902-109.227-109.228-109.227" />
    <path d="M641.708 259.412H314.027c-30.162 0-54.613 24.451-54.613 54.614v273.066c0 30.163 24.451 54.612 54.613 54.612h327.681c30.159 0 54.612-24.449 54.612-54.612V314.026c0-30.162-24.453-54.614-54.612-54.614M914.772 259.412v382.292M259.414 860.16v109.224M914.772 860.16v109.224" />
</svg>