<svg viewBox="0 0 1024 1024" fill="currentColor" width="32" height="32" xmlns="http://www.w3.org/2000/svg" xmlns:xlink="http://www.w3.org/1999/xlink">
    <path d="M1012.285 7.221a31.96 31.96 0 0 1 8.643 11.067 31.9 31.9 0 0 1 3.072 13.701V927.99a32 32 0 0 1-7.26 20.275 32 32 0 0 1-18.468 11.085l-320 64a32.1 32.1 0 0 1-12.544 0L352 960.63 38.272 1023.35a32 32 0 0 1-26.554-6.631 31.986 31.986 0 0 1-11.719-24.73V95.988a32 32 0 0 1 25.728-31.36l320-64a32 32 0 0 1 12.544 0l313.728 62.72 313.728-62.72a32 32 0 0 1 26.558 6.593zM640 122.229l-256-51.2V901.75l256 51.2zM704 952.95l256-51.2V71.029l-256 51.2zM320 901.75V71.029l-256 51.2V952.95z" />
</svg>