<svg viewBox="0 0 1024 1024" fill="currentColor" width="32" height="32" xmlns="http://www.w3.org/2000/svg" xmlns:xlink="http://www.w3.org/1999/xlink">
    <path d="M483.698 53.643c12.006-22.757 44.598-22.757 56.604 0l120.85 229.048a32 32 0 0 0 22.842 16.599l255.187 44.152c25.35 4.387 35.424 35.383 17.491 53.834L776.173 582.989a32 32 0 0 0-8.723 26.858l36.864 256.335c3.661 25.466-22.707 44.627-45.792 33.274L526.12 785.184a32 32 0 0 0-28.239 0L265.482 899.456c-23.09 11.354-49.457-7.808-45.794-33.274l36.863-256.335a32 32 0 0 0-8.726-26.858L67.331 397.276c-17.933-18.451-7.861-49.447 17.492-53.834l255.181-44.152a32 32 0 0 0 22.847-16.599z" />
</svg>