<svg viewBox="0 0 1024 1024" fill="currentColor" width="32" height="32" xmlns="http://www.w3.org/2000/svg" xmlns:xlink="http://www.w3.org/1999/xlink">
    <path d="M800 128a160 160 0 0 0-160 160c0 8.487-3.373 16.626-9.373 22.628S616.486 320 608 320a32 32 0 0 1-32-32 223.997 223.997 0 0 1 267.699-219.696 224.002 224.002 0 0 1 163.251 305.418A223.997 223.997 0 0 1 800 512H32a32.004 32.004 0 0 1-32-32c0-8.486 3.371-16.627 9.373-22.627S23.514 448 32 448h768a160 160 0 0 0 113.136-46.864 159.99 159.99 0 0 0 0-226.273A160 160 0 0 0 800 128M352 192a63.997 63.997 0 0 0-64 64c0 8.487-3.372 16.626-9.372 22.628S264.488 288 256 288s-16.626-3.371-22.628-9.372S224 264.488 224 256a128 128 0 1 1 128 128H32a32.004 32.004 0 0 1-32-32c0-8.486 3.371-16.627 9.373-22.627S23.514 320 32 320h320a64 64 0 0 0 64-64 64.001 64.001 0 0 0-64-64M0 608c0-8.486 3.371-16.627 9.373-22.627S23.514 576 32 576h642.688a192.002 192.002 0 0 1 188.311 229.455 191.98 191.98 0 0 1-52.547 98.307 191.98 191.98 0 0 1-98.307 52.547c-37.242 7.408-75.846 3.606-110.931-10.925s-65.069-39.142-86.166-70.717a192 192 0 0 1-32.358-106.669 32.004 32.004 0 0 1 32-32 32.004 32.004 0 0 1 32 32 127.985 127.985 0 0 0 79.017 118.256 127.996 127.996 0 0 0 174.521-93.283 128.002 128.002 0 0 0-54.425-131.401 128 128 0 0 0-71.114-21.571H32.001A32.004 32.004 0 0 1 0 608z" />
</svg>